<svg width="100%" height="100%" viewBox="0 0 312 72" fill="none" xmlns="http://www.w3.org/2000/svg">
	<g clip-path="url(#clip0_2311_56)">
		<path d="M88.2992 62.6H104.099V70.4H80.1992V29.1H88.2992V62.6Z" fill="#0F2269"/>
		<path d="M112.999 58.8C113.999 62.5 116.799 64.3 121.299 64.3C124.199 64.3 126.399 63.3 127.899 61.3L133.999 64.8C131.099 69 126.799 71.1 121.099 71.1C116.199 71.1 112.299 69.6 109.399 66.7C106.399 63.7 104.999 60 104.999 55.5C104.999 51.1 106.499 47.4 109.399 44.4C112.299 41.4 116.099 39.9 120.599 39.9C124.899 39.9 128.499 41.4 131.299 44.4C134.099 47.4 135.499 51.1 135.499 55.5C135.499 56.5 135.399 57.5 135.199 58.6H112.999V58.8ZM127.899 52.9C126.999 48.9 124.099 46.9 120.599 46.9C116.499 46.9 113.799 49.1 112.899 52.9H127.899Z" fill="#0F2269"/>
		<path d="M163.999 43.3C166.099 45.5 167.199 48.4 167.199 52.3V70.4H159.599V53.2C159.599 49.2 157.299 47.1 153.799 47.1C149.799 47.1 147.299 49.5 147.299 54.4V70.3H139.699V40.8H147.299V44.1C149.099 41.3 152.099 40 156.099 40C159.299 40.1 161.999 41.2 163.999 43.3Z" fill="#0F2269"/>
		<path d="M194.899 29.1H202.499V70.4H194.899V66.9C192.699 69.8 189.499 71.2 185.299 71.2C181.299 71.2 177.899 69.7 175.099 66.7C172.299 63.7 170.899 60 170.899 55.6C170.899 51.2 172.299 47.6 175.099 44.6C177.899 41.6 181.399 40.1 185.299 40.1C189.399 40.1 192.599 41.5 194.899 44.4V29.1ZM186.699 64C189.099 64 190.999 63.2 192.499 61.7C193.999 60.1 194.799 58.1 194.799 55.7C194.799 53.3 193.999 51.3 192.499 49.7C190.999 48.1 188.999 47.3 186.699 47.3C184.399 47.3 182.399 48.1 180.799 49.7C179.299 51.2 178.499 53.2 178.499 55.7C178.499 58.1 179.299 60.1 180.799 61.7C182.399 63.2 184.399 64 186.699 64Z" fill="#0F2269"/>
		<path d="M233.699 67.5V70.5H209.899V29.1H233.399V32.1H212.999V48.1H231.899V51.1H212.999V67.5H233.699Z" fill="#263069"/>
		<path d="M275.199 49.8C275.199 61.2 267.099 70.5 255.699 70.5H240.199V29.1H255.699C267.099 29.1 275.199 38.4 275.199 49.8ZM272.099 49.8C272.099 40 265.399 32.1 255.699 32.1H243.299V67.5H255.699C265.499 67.5 272.099 59.6 272.099 49.8Z" fill="#263069"/>
		<path d="M280.999 56.6V29.1H284.099V56.6C284.099 63.3 288.299 68 296.099 68C303.899 68 308.099 63.3 308.099 56.6V29.1H311.199V56.6C311.199 65.3 305.099 71.1 295.999 71.1C286.899 71.1 280.999 65.4 280.999 56.6Z" fill="#263069"/>
		<path d="M21.3994 54.4C21.7994 55.3 22.0994 56.1 22.4994 57C24.3994 61.6 27.1994 66.2 31.4994 68.8C33.9994 70.3 36.7994 70.8 39.5994 69.9C42.2994 69 44.7994 67.4 46.9994 65.6C50.8994 62.4 54.4994 58.7 57.9994 55C59.7994 53.2 61.1994 51.1 62.2994 48.7C62.8994 47.5 63.1994 46.1 63.4994 44.8C63.5994 44.5 63.5994 44.2 63.5994 44C63.6994 43.1 63.6994 42.2 63.6994 41.3C63.4994 38.4 62.4994 36.1 60.5994 34.2C59.1994 32.8 57.4994 32.1 55.6994 32C56.4994 32.3 56.8994 32.6 57.3994 33.1C57.9994 33.6 58.2994 34.2 58.5994 34.9C59.5994 37.8 57.7994 40.7 55.7994 42.7C51.9994 46.8 47.5994 50.5 43.5994 54.3L36.9994 60C36.9994 60 36.7994 60.1 36.5994 60.3C34.3994 57.6 30.8994 49.7 30.5994 49.2C30.1994 49.6 29.6994 49.9 29.1994 50.2C28.6994 50.6 28.1994 50.9 27.6994 51.2C26.7994 51.8 25.7994 52.4 24.7994 52.9C24.5994 53 23.8994 53.4 23.0994 53.7C22.0994 54.2 21.3994 54.4 21.3994 54.4Z" fill="#61E3D8"/>
		<path d="M23.7547 22.3181C25.4245 18.287 23.5103 13.6657 19.4793 11.9959C15.4482 10.3262 10.8269 12.2404 9.15712 16.2714C7.48738 20.3024 9.40158 24.9238 13.4326 26.5936C17.4636 28.2633 22.085 26.3491 23.7547 22.3181Z" fill="#7779BF"/>
		<path d="M44.8 19.4C49.9363 19.4 54.1 15.2362 54.1 10.1C54.1 4.96374 49.9363 0.799988 44.8 0.799988C39.6638 0.799988 35.5 4.96374 35.5 10.1C35.5 15.2362 39.6638 19.4 44.8 19.4Z" fill="#0F2269"/>
		<path d="M69.2996 30.6C68.6996 27.9 67.3996 25.4 65.1996 23.6C60.8996 20 54.4996 20.2 49.3996 22.3C44.2996 24.4 39.9996 28.3 35.6996 31.8C32.7996 34.1 29.8996 36.4 26.7996 38.5C23.8996 40.5 21.0996 42.4 17.8996 44C16.4996 44.7 14.9996 45.2 13.3996 45.5C10.6996 45.9 7.49965 45.7 5.39965 43.8C4.89965 43.4 4.59964 42.8 4.29964 42.2L3.99964 41.7C3.29964 39.9 2.99965 38.5 3.39965 36.2C3.39965 36.1 3.49964 35.7 3.59964 35.6C3.69964 35.3 3.79964 35 3.99964 34.6C4.09964 34.4 4.19964 34.3 4.29964 34C4.39964 33.7 5.09964 33 5.09964 33C5.09964 33 3.89965 34.1 3.69965 34.4C3.19965 35 2.69964 35.5 2.29964 36.2C2.09964 36.5 1.89965 36.9 1.69965 37.2C-0.500355 41.7 0.699646 46.7 3.89965 50.5C7.89965 55.1 14.4996 56.1 20.1996 54.7C25.6996 53.4 30.1996 49.5 34.4996 46C38.1996 42.9 41.7996 39.9 45.4996 36.8C48.4996 34.3 51.9996 31.6 55.8996 32C56.3996 32 56.7996 32.1 57.2996 32.3C57.3996 32.3 57.5996 32.4 57.6996 32.4C57.7996 32.4 57.7996 32.4 57.8996 32.5C58.0996 32.6 58.1996 32.7 58.3996 32.7C60.3996 33.7 61.8996 35.6 62.7996 37.8C64.0996 41.5 63.5996 45.2 62.0996 48.7C61.8996 49.1 61.6996 49.5 61.4996 49.9C60.8996 51 60.3996 51.8 59.5996 52.8C63.4996 48.8 67.1996 44.5 68.7996 39.1C69.6996 36.4 69.8996 33.4 69.2996 30.6Z" fill="#0F2269"/>
		<path d="M3.49974 39.7C3.69974 40.5 3.99974 41.4 4.39974 42.2C3.89974 40.4 4.39974 38.4 6.09974 37.3C7.79974 36.2 9.99974 36.2 11.8997 37.1C14.6997 38.4 16.3997 41.6 17.4997 44.3C17.6997 44.2 17.8997 44.1 18.0997 44L18.5997 43.8C18.8997 43.7 19.1997 43.5 19.4997 43.4C19.5997 43.4 19.5997 43.3 19.6997 43.3C19.9997 43.1 20.3997 42.9 20.6997 42.7C20.7997 42.6 20.8997 42.6 20.9997 42.5C21.6997 42.1 22.2997 41.7 22.9997 41.2C24.0997 40.5 24.8997 40 25.8997 39.3C25.3997 38.3 24.9997 37.6 24.3997 36.9C23.8997 36.3 23.2997 35.7 22.7997 35.1C19.5997 31.8 14.9997 29.8 10.2997 30.7C8.19974 31.1 5.79974 32.2 4.59974 34C3.99974 35 3.69974 36.2 3.59974 37.4C3.29974 38.2 3.29974 39 3.49974 39.7Z" fill="#7779BF"/>
	</g>
	<defs>
		<clipPath id="clip0_2311_56">
			<rect width="312" height="72" fill="#fff"/>
		</clipPath>
	</defs>
</svg>
